<svg xmlns="http://www.w3.org/2000/svg" xmlns:xlink="http://www.w3.org/1999/xlink" viewBox="0 0 817.69 756.1"><defs><linearGradient id="b" x1="0" x2="720.59" y1="378.05" y2="378.05" data-name="Degradado sin nombre 19" gradientUnits="userSpaceOnUse"><stop offset="0" stop-color="#fa71cd"/><stop offset="1" stop-color="#c471f5"/></linearGradient><linearGradient id="a" x1="359.55" x2="366.88" y1="266.71" y2="668.57" data-name="Degradado sin nombre 44" gradientUnits="userSpaceOnUse"><stop offset=".11" stop-color="#666"/><stop offset=".29" stop-color="#7c7c7c" stop-opacity=".85"/><stop offset=".63" stop-color="#b6b6b6" stop-opacity=".47"/><stop offset="1" stop-color="#fff" stop-opacity="0"/></linearGradient><linearGradient id="c" x1="394.6" x2="295.17" y1="129.85" y2="593.84" data-name="Degradado sin nombre 13" gradientUnits="userSpaceOnUse"><stop offset="0" stop-color="#764ba2"/><stop offset="1" stop-color="#667eea"/></linearGradient><linearGradient xlink:href="#a" id="d" x1="554.27" x2="177.36" y1="272.7" y2="441.36" data-name="Degradado sin nombre 44"/><linearGradient id="e" x1=".03" x2="720.56" y1="195.62" y2="195.62" data-name="Degradado sin nombre 7" gradientUnits="userSpaceOnUse"><stop offset="0" stop-color="#4facfe"/><stop offset="1" stop-color="#00f2fe"/></linearGradient><linearGradient id="f" x1=".07" x2="720.54" y1="248.55" y2="248.55" data-name="Degradado sin nombre 49" gradientUnits="userSpaceOnUse"><stop offset="0" stop-color="#00edff"/><stop offset="1" stop-color="#00f2fe" stop-opacity="0"/></linearGradient><linearGradient xlink:href="#b" id="g" x1="502.7" x2="488.87" y1="679.11" y2="742.02" data-name="Degradado sin nombre 19"/><linearGradient id="h" x1="206.32" x2="430.31" y1="582.63" y2="616.38" data-name="Degradado sin nombre 69" gradientUnits="userSpaceOnUse"><stop offset="0" stop-color="#ff99f5"/><stop offset=".99" stop-color="#c471f5" stop-opacity="0"/></linearGradient><linearGradient xlink:href="#b" id="i" x1="563.67" x2="558.14" y1="650.89" y2="693.75" data-name="Degradado sin nombre 19"/><linearGradient xlink:href="#b" id="j" x1="608.21" x2="602.68" y1="627.37" y2="655.71" data-name="Degradado sin nombre 19"/><linearGradient id="k" x1="185.81" x2="286.27" y1="650.54" y2="218.4" data-name="Degradado sin nombre 61" gradientUnits="userSpaceOnUse"><stop offset="0" stop-color="#90a8fc"/><stop offset="1" stop-color="#667eea" stop-opacity="0"/></linearGradient></defs><g data-name="Camada 2" style="isolation:isolate"><text style="font-family:Geometric415BT-BlackA,&quot;Geometr415 Blk BT&quot;;font-size:273.26px;font-weight:800" transform="matrix(.92 0 0 1 384.23 538.46)"><tspan x="0" y="0">E</tspan><tspan x="155.44" y="0" style="fill:#00c0ff">2</tspan><tspan x="313.69" y="0">E</tspan></text><text style="font-family:MicrosoftYaHeiUI,&quot;Microsoft YaHei UI&quot;;font-size:32.89px" transform="translate(408.75 589.24)"><tspan x="0" y="0" style="letter-spacing:.41em">T</tspan><tspan x="32.22" y="0" style="letter-spacing:.49em">r</tspan><tspan x="60.76" y="0" style="letter-spacing:.5em">einamen</tspan><tspan x="311.49" y="0" style="letter-spacing:.49em">t</tspan><tspan x="339.91" y="0" style="letter-spacing:.5em">os</tspan></text><path d="M415.08 703.09c-72.77 21.22-145.68.21-214.89-44.56-121.57-78.66-148.13-230.87-80.37-356.15 71.43-132.05 230.42-169.02 358.98-91.71 26.72 16.07 49.66 36.02 68.55 58.69 27.69 33.24 71.31 48.66 113.3 38.2l3.57-.89c47.09-11.72 70.36-64.62 47.48-107.42-32.92-61.59-83.35-114.9-149.25-151.72C387.28-50.33 163.08 7.65 57.14 178.06-54.55 357.71 2.72 593.36 183.37 701.99c76.13 45.78 161.9 61.59 243.63 50.91 14.47-1.89 24.33-15.62 21.42-29.92-3.08-15.17-18.48-24.23-33.34-19.89Z" style="fill:url(#b)"/><path d="M415.08 703.09c-72.77 21.22-145.68.21-214.89-44.56-121.57-78.66-148.13-230.87-80.37-356.15 71.43-132.05 230.42-169.02 358.98-91.71 26.72 16.07 49.66 36.02 68.55 58.69 27.69 33.24 71.31 48.66 113.3 38.2l3.57-.89c47.09-11.72 70.36-64.62 47.48-107.42-32.92-61.59-83.35-114.9-149.25-151.72C387.28-50.33 163.08 7.65 57.14 178.06-54.55 357.71 2.72 593.36 183.37 701.99c76.13 45.78 161.9 61.59 243.63 50.91 14.47-1.89 24.33-15.62 21.42-29.92-3.08-15.17-18.48-24.23-33.34-19.89Z" style="mix-blend-mode:multiply;opacity:.6;fill:url(#a)"/><path d="M106.37 304.1c78.3-128.1 243.88-170.74 372.44-93.44 26.72 16.07 49.66 36.02 68.55 58.69 27.69 33.24 71.31 48.66 113.3 38.2l3.57-.89c47.09-11.72 70.36-64.62 47.48-107.42-32.92-61.59-83.35-114.9-149.25-151.72C387.28-50.33 163.08 7.65 57.14 178.06-54.55 357.71 2.72 593.36 183.37 701.99c50.46 30.34 105.15 47.44 160.09 52.47C25.27 697.14 45.69 403.37 106.37 304.1Z" style="fill:url(#c)"/><path d="M106.37 304.1c78.3-128.1 243.88-170.74 372.44-93.44 26.72 16.07 49.66 36.02 68.55 58.69 27.69 33.24 71.31 48.66 113.3 38.2l3.57-.89c47.09-11.72 70.36-64.62 47.48-107.42-32.92-61.59-83.35-114.9-149.25-151.72C387.28-50.33 163.08 7.65 57.14 178.06-54.55 357.71 2.72 593.36 183.37 701.99c50.46 30.34 105.15 47.44 160.09 52.47C25.27 697.14 45.69 403.37 106.37 304.1Z" style="fill:url(#d);mix-blend-mode:multiply;opacity:.6"/><path d="M283.51 120.08c157.51-5.11 231.98 85.48 270.67 144.81 23.63 36.24 64.45 53.12 106.44 42.67l3.57-.89c47.09-11.72 70.36-64.62 47.48-107.42-32.92-61.59-83.35-114.9-149.25-151.72C387.25-50.33 163.06 7.65 57.11 178.06 15.78 244.55-2.36 318.7.28 391.25c-3.01-156.37 125.69-266.06 283.23-271.17Z" style="fill:url(#e)"/><path d="m664.2 292.65-3.57.89c-41.98 10.45-82.8-6.42-106.44-42.67-38.69-59.32-113.16-149.92-270.67-144.81C125.97 111.17-2.73 220.86.28 377.23c-.08-2.25-.08-4.51-.12-6.77-.13 6.94-.13 13.87.12 20.79-3.01-156.37 125.69-266.06 283.23-271.17 157.51-5.11 231.98 85.48 270.67 144.81 23.63 36.24 64.45 53.12 106.44 42.67l3.57-.89c37.07-9.23 59.36-43.98 56.01-79.24-2.86 30.05-23.88 57.22-56.01 65.21Z" style="fill:url(#f)"/><path d="M524.19 705.74c0 15.1-12.24 27.35-27.35 27.35s-27.35-12.24-27.35-27.35 12.24-27.35 27.35-27.35 27.35 12.24 27.35 27.35Z" style="fill:url(#g)"/><path d="M415.08 703.09c-72.77 21.23-145.68.21-214.89-44.56C123.23 608.74 84.4 529.46 83.41 446.21c-1.92 86.64 36.94 170.02 116.78 221.68 69.21 44.78 142.12 65.79 214.89 44.56 14.86-4.33 30.26 4.73 33.34 19.89.02.1.03.2.04.3.59-3.1.63-6.36-.04-9.66-3.08-15.17-18.48-24.23-33.34-19.89Z" style="fill:url(#h)"/><path d="M580.96 671.74c0 11.04-8.95 19.99-19.99 19.99s-19.99-8.95-19.99-19.99 8.95-19.99 19.99-19.99 19.99 8.95 19.99 19.99Z" style="fill:url(#i)"/><circle cx="605.97" cy="638.86" r="12.89" style="fill:url(#j)"/><path d="M106.37 304.1c50.68-82.92 137.94-129.96 228.05-131.92-93.95-1.8-186.29 45.64-239.03 131.92-59.24 96.91-80.04 379.13 215.02 445.82 10.99 1.99 22.01 3.52 33.05 4.53C25.27 697.14 45.69 403.37 106.37 304.1Z" style="fill:url(#k)"/></g></svg>